<svg xmlns="http://www.w3.org/2000/svg" viewBox="0 0 171.26 43"><path fill="#bccf00" d="M107.34,6.55c0,.08.33.77.1.91s-.4,0-.46-.29c-.1-.56,0-1-.52-1.35-.33-.19-1.32,1.37-4.72-.05A9.56,9.56,0,0,1,96.55.21s-.09-.27,1,.33c.89.5,2,.31,3.72-.08,2-.46,6.15.75,6,4.22,0,0-2.1-4.51-8-2.56,0,0-.35.2.36.21s4.51-.53,6.51,1.87a6.53,6.53,0,0,1,1.29,2.35"/><path fill="#fff" d="M35,16.25H26.09a4.8,4.8,0,0,1,4.87-4c4.12,0,4,4.06,4,4.06M31.1,8.05A13,13,0,0,0,18.23,19.11C17.33,25.53,21.55,30,28.51,30A14.43,14.43,0,0,0,37.13,27a1.2,1.2,0,0,0,.31-1.64l-1-1.46a1.24,1.24,0,0,0-1.65-.23A9.41,9.41,0,0,1,30.07,25c-3.05,0-5-1.89-4.66-4.59l13.14,0a1.17,1.17,0,0,0,1.21-1q.1-.5.18-1a9.26,9.26,0,0,0-1.49-6.77,8.84,8.84,0,0,0-7.35-3.6"/><path fill="#fff" d="M42.73,30c5.5,0,6.69-3.62,6.92-5.11.18-1.15,3.24-23.8,3.24-23.8h-.34c-7.73,0-8.42,9.31-8.42,9.31s-2.54,17.88-2.56,18.24,0,1.37,1.16,1.37"/><path fill="#fff" d="M101.3,8.66s.32.78-.73,5-2,9.52-.9,12.33a7.73,7.73,0,0,0,6.47,5.13,12.35,12.35,0,0,1-.78-5.24c.25-2.42,1.69-8.12,2.22-10.74S107,10,105,9.26a8.63,8.63,0,0,0-3.67-.6"/><path fill="#fff" d="M160.28,13a6.3,6.3,0,0,1,4.64-1.93L163,16.28c-.54,1.48-1.1,3-1.51,4.12-.92,2.56-2,3.49-2.73,3.46-2.72-.09-1.39-7.84,1.48-10.85m10.81,17.73a29.73,29.73,0,0,1-1.33-7C169.2,18.59,171,10.27,171,10.19l.05-.23-.21-.12a15.81,15.81,0,0,0-6.64-1.76,13.48,13.48,0,0,0-10.32,4,13.68,13.68,0,0,0-4,8.51c-.51,4.07.89,6.66,2.57,8.22a5.79,5.79,0,0,0,5.15,1.09c3.21-1,4.87-4,5.56-5.56,1.92,6.46,6.55,6.81,7.49,6.81a4,4,0,0,0,.62,0l-.17-.41h0"/><path fill="#fff" d="M69.31,16.25H60.44a4.79,4.79,0,0,1,4.86-4c4.12,0,4,4.06,4,4.06m-3.86-8.2A13,13,0,0,0,52.58,19.11C51.68,25.53,55.9,30,62.85,30A14.44,14.44,0,0,0,71.48,27a1.2,1.2,0,0,0,.31-1.64l-1-1.46a1.25,1.25,0,0,0-1.66-.23A9.37,9.37,0,0,1,64.42,25c-3.05,0-5-1.89-4.66-4.59l13.14,0a1.17,1.17,0,0,0,1.21-1q.11-.5.18-1a9.26,9.26,0,0,0-1.49-6.77,8.84,8.84,0,0,0-7.35-3.6"/><path fill="#fff" d="M19,18.49c0,.22-.08.44-.11.66s0,.47-.07.7v0s-1,5-4.37,5c-2.7,0-3.81-1.48-3.38-4.51,0,0,.55-3.82.83-5.8a1.53,1.53,0,0,1,1.52-1.16h4.2l.49-3.13s.31-1.12-1.48-1.13H13.79a9.25,9.25,0,0,0-1.13,0c0-.18.61-4.17.93-6.42,0-.95-1.35-.83-2-.43C9.12,4,6.88,5.5,4.2,7.47,1.68,9.33.33,10.73.17,11.61c-.12.65-.66,1.79.34,1.79l3.82,0h.09c0,.27-1.11,7.74-1.11,7.74C2.47,27,6.47,30,10.85,30a8.14,8.14,0,0,0,8.4-6.25c.58,1.75-.76-2.27-.24-5.3"/><path fill="#fff" d="M88.86,21.82c-1.33,3.37-3.1,4.83-5.94,4.86h-.15c.25-1,1.33-5.22,2.15-7.8,1-3.14,2.16-4.79,3.37-4.79h.18a.86.86,0,0,1,.58.46c.81,1.36.72,4.94-.19,7.25M75.67,7c1.55,5.63,1.78,7.31.93,15.19a52.21,52.21,0,0,1-1.29,7c-.69,2.84-1.15,4.72-.29,7.78a7.73,7.73,0,0,0,6.5,5.57c.07-.72-.31-1.9-.4-5.09a23.29,23.29,0,0,1,1-7.73,11.46,11.46,0,0,0,1.56.1c4.22,0,8.65-2.13,10.51-5.09a13.48,13.48,0,0,0,1.42-13.17C94.52,9.33,92.86,8,91,7.8c-3.86-.35-6.59,4.12-7.58,6.21-1.79-6.33-5.09-7-7.77-7"/><path fill="#fff" d="M112.48,15.55s-4.29-2.71-1.74-5.36c2.1-2.17,5.86-2.29,8.83-2.06,3.17.25,8,1.07,8.31,5.27.25,3-1.22,4.38-6.1,8.46-2.31,1.93-4.53,3.73-4.74,4.58,1.12-.48,15.14-2.06,12,8.36a15.65,15.65,0,0,0-10.95-4.52c-3.56.11-7.68,0-8.15-4.27-.07-.65-.13-3.51,5.65-8.21,5.23-4.26,5.26-5.76,4.18-6.27-1.32-.61-5.94.7-7.32,4"/><path fill="#fff" d="M132.79,15.58s-4.29-2.71-1.74-5.36c2.09-2.17,5.85-2.29,8.83-2.06,3.17.25,8,1.07,8.31,5.27.24,3-1.22,4.38-6.11,8.46-2.31,1.93-4.52,3.73-4.73,4.57,1.12-.48,15.14-2.05,12,8.38a15.66,15.66,0,0,0-11-4.53c-3.55.11-7.67,0-8.15-4.26-.06-.66-.12-3.52,5.66-8.23,5.23-4.25,5.25-5.75,4.17-6.26-1.32-.62-5.94.7-7.31,4"/></svg>